<svg width="512" height="512" viewBox="0 0 512 512" fill="none" xmlns="http://www.w3.org/2000/svg">
<path d="M256 50C142.22 50 50 142.22 50 256C50 369.78 142.22 462 256 462C369.78 462 462 369.78 462 256C462 142.22 369.78 50 256 50Z" fill="url(#paint0_linear_101_2)"/>
<path d="M346.84 165.16C330.04 148.35 306.96 138 282.4 138H229.6C205.04 138 181.96 148.35 165.16 165.16C148.35 181.96 138 205.04 138 229.6V282.4C138 306.96 148.35 330.04 165.16 346.84C181.96 363.65 205.04 374 229.6 374H282.4C306.96 374 330.04 363.65 346.84 346.84C363.65 330.04 374 306.96 374 282.4V229.6C374 205.04 363.65 181.96 346.84 165.16Z" fill="#fff"/>
<path d="M312 240H272V200C272 191.16 264.84 184 256 184C247.16 184 240 191.16 240 200V240H200C191.16 240 184 247.16 184 256C184 264.84 191.16 272 200 272H240V312C240 320.84 247.16 328 256 328C264.84 328 272 320.84 272 312V272H312C320.84 272 328 264.84 328 256C328 247.16 320.84 240 312 240Z" fill="url(#paint1_linear_101_2)"/>
<defs>
<linearGradient id="paint0_linear_101_2" x1="256" y1="50" x2="256" y2="462" gradientUnits="userSpaceOnUse">
<stop stop-color="#EF4444"/>
<stop offset="1" stop-color="#DC2626"/>
</linearGradient>
<linearGradient id="paint1_linear_101_2" x1="256" y1="184" x2="256" y2="328" gradientUnits="userSpaceOnUse">
<stop stop-color="#DC2626"/>
<stop offset="1" stop-color="#B91C1C"/>
</linearGradient>
</defs>
</svg>